<svg width="1280" height="5539" viewBox="0 0 1280 5539" fill="none" xmlns="http://www.w3.org/2000/svg">
<line x1="662" y1="3041" x2="955" y2="3041" stroke="#006FFD" stroke-width="8" stroke-linecap="round" stroke-dasharray="1 18"/>
<path d="M1154.03 5470.69C1154.29 5469.69 1155.71 5469.69 1155.97 5470.69L1161.58 5492.27C1161.86 5493.32 1162.68 5494.14 1163.73 5494.42L1185.31 5500.03C1186.31 5500.29 1186.31 5501.71 1185.31 5501.97L1163.73 5507.58C1162.68 5507.86 1161.86 5508.68 1161.58 5509.73L1155.97 5531.31C1155.71 5532.31 1154.29 5532.31 1154.03 5531.31L1148.42 5509.73C1148.14 5508.68 1147.32 5507.86 1146.27 5507.58L1124.69 5501.97C1123.69 5501.71 1123.69 5500.29 1124.69 5500.03L1146.27 5494.42C1147.32 5494.14 1148.14 5493.32 1148.42 5492.27L1154.03 5470.69Z" stroke="#006FFD" stroke-width="2"/>
<path d="M1235.03 5391.69C1235.29 5390.69 1236.71 5390.69 1236.97 5391.69L1240.72 5406.13C1241 5407.18 1241.82 5408 1242.87 5408.28L1257.31 5412.03C1258.31 5412.29 1258.31 5413.71 1257.31 5413.97L1242.87 5417.72C1241.82 5418 1241 5418.82 1240.72 5419.87L1236.97 5434.31C1236.71 5435.31 1235.29 5435.31 1235.03 5434.31L1231.28 5419.87C1231 5418.82 1230.18 5418 1229.13 5417.72L1214.69 5413.97C1213.69 5413.71 1213.69 5412.29 1214.69 5412.03L1229.13 5408.28C1230.18 5408 1231 5407.18 1231.28 5406.13L1235.03 5391.69Z" stroke="#006FFD" stroke-width="2"/>
<path d="M40.0322 4682.69C40.2918 4681.69 41.7081 4681.69 41.9678 4682.69L45.7246 4697.13C45.9985 4698.18 46.8199 4699 47.8721 4699.28L62.3096 4703.03C63.307 4703.29 63.307 4704.71 62.3096 4704.97L47.8721 4708.72C46.8199 4709 45.9985 4709.82 45.7246 4710.87L41.9678 4725.31C41.7081 4726.31 40.2918 4726.31 40.0322 4725.31L36.2754 4710.87C36.0015 4709.82 35.1801 4709 34.1279 4708.72L19.6904 4704.97C18.693 4704.71 18.6929 4703.29 19.6904 4703.03L34.1279 4699.28C35.1801 4699 36.0015 4698.18 36.2754 4697.13L40.0322 4682.69Z" stroke="#006FFD" stroke-width="2"/>
<g filter="url(#filter0_g_119_69)">
<circle cx="69.5" cy="171.5" r="71.5" fill="#006FFD" fill-opacity="0.26"/>
</g>
<g filter="url(#filter1_g_119_69)">
<circle cx="1295.5" cy="2431.5" r="131.5" fill="#FF5900" fill-opacity="0.35"/>
</g>
<g filter="url(#filter2_g_119_69)">
<circle cx="25.5" cy="4534.5" r="131.5" fill="#FF5900" fill-opacity="0.35"/>
</g>
<path d="M298.618 1260.3C287.286 1230.31 254.124 1215.06 224.549 1226.23C194.975 1237.41 180.187 1270.78 191.519 1300.77" stroke="#006FFD" stroke-width="11"/>
<path d="M270.492 1271.49C265.237 1257.59 249.859 1250.51 236.145 1255.7C222.431 1260.88 215.573 1276.35 220.829 1290.26" stroke="#FF5900" stroke-width="11"/>
<path d="M800 4365L800 4477M832.534 4376.87L766.702 4467.48M851.877 4405.6L745.359 4440.21M850.641 4440.21L744.123 4405.6M829.298 4467.48L763.466 4376.87M796 4477L796 4365M763.466 4465.13L829.298 4374.52M744.123 4436.4L850.641 4401.79M745.359 4401.79L851.877 4436.4M766.702 4374.52L832.534 4465.13" stroke="#006FFD" stroke-width="4"/>
<path d="M58.5 2626L58.5 2817M114.251 2645.41L1.98457 2799.94M147.944 2693.89L-33.7078 2752.91M146.708 2752.91L-34.9439 2693.89M111.015 2799.94L-1.25149 2645.41M54.5 2817L54.5 2626M-1.25151 2797.59L111.015 2643.06M-34.9439 2749.11L146.708 2690.09M-33.7078 2690.09L147.944 2749.11M1.98461 2643.06L114.251 2797.59" stroke="#FF5900" stroke-width="4"/>
<path d="M24 176L24 288M56.534 187.871L-9.29792 278.48M75.8772 216.597L-30.6411 251.207M74.6411 251.207L-31.8772 216.597M53.2979 278.48L-12.534 187.871M20 288L20 176M-12.534 276.129L53.2979 185.519M-31.8772 247.403L74.6411 212.793M-30.6411 212.793L75.8772 247.403M-9.2979 185.519L56.534 276.129" stroke="#FF5900" stroke-width="4"/>
<path d="M387.032 643.69C387.292 642.693 388.708 642.693 388.968 643.69L394.583 665.27C394.857 666.322 395.678 667.143 396.73 667.417L418.31 673.032C419.307 673.292 419.307 674.708 418.31 674.968L396.73 680.583C395.678 680.857 394.857 681.678 394.583 682.73L388.968 704.31C388.708 705.307 387.292 705.307 387.032 704.31L381.417 682.73C381.143 681.678 380.322 680.857 379.27 680.583L357.69 674.968C356.693 674.708 356.693 673.292 357.69 673.032L379.27 667.417C380.322 667.143 381.143 666.322 381.417 665.27L387.032 643.69Z" stroke="#006FFD" stroke-width="2"/>
<path d="M77.0322 2888.69C77.2918 2887.69 78.7082 2887.69 78.9678 2888.69L84.583 2910.27C84.8568 2911.32 85.6783 2912.14 86.7305 2912.42L108.31 2918.03C109.307 2918.29 109.307 2919.71 108.31 2919.97L86.7305 2925.58C85.6783 2925.86 84.8568 2926.68 84.583 2927.73L78.9678 2949.31C78.7082 2950.31 77.2918 2950.31 77.0322 2949.31L71.417 2927.73C71.1432 2926.68 70.3217 2925.86 69.2695 2925.58L47.6904 2919.97C46.693 2919.71 46.6929 2918.29 47.6904 2918.03L69.2695 2912.42C70.3217 2912.14 71.1432 2911.32 71.417 2910.27L77.0322 2888.69Z" stroke="#006FFD" stroke-width="2"/>
<path d="M433.032 610.69C433.292 609.693 434.708 609.693 434.968 610.69L438.725 625.128C438.998 626.18 439.82 627.002 440.872 627.275L455.31 631.032C456.307 631.292 456.307 632.708 455.31 632.968L440.872 636.725C439.82 636.998 438.998 637.82 438.725 638.872L434.968 653.31C434.708 654.307 433.292 654.307 433.032 653.31L429.275 638.872C429.002 637.82 428.18 636.998 427.128 636.725L412.69 632.968C411.693 632.708 411.693 631.292 412.69 631.032L427.128 627.275C428.18 627.002 429.002 626.18 429.275 625.128L433.032 610.69Z" stroke="#006FFD" stroke-width="2"/>
<path d="M177.032 2824.69C177.292 2823.69 178.708 2823.69 178.968 2824.69L182.725 2839.13C182.998 2840.18 183.82 2841 184.872 2841.28L199.31 2845.03C200.307 2845.29 200.307 2846.71 199.31 2846.97L184.872 2850.72C183.82 2851 182.998 2851.82 182.725 2852.87L178.968 2867.31C178.708 2868.31 177.292 2868.31 177.032 2867.31L173.275 2852.87C173.002 2851.82 172.18 2851 171.128 2850.72L156.69 2846.97C155.693 2846.71 155.693 2845.29 156.69 2845.03L171.128 2841.28C172.18 2841 173.002 2840.18 173.275 2839.13L177.032 2824.69Z" stroke="#006FFD" stroke-width="2"/>
<path d="M1262.21 1058.9C1263.32 1057.16 1266.01 1058.02 1265.9 1060.08L1263.38 1104.85C1263.34 1105.57 1263.69 1106.26 1264.3 1106.65L1302.16 1130.67C1303.9 1131.77 1303.04 1134.47 1300.98 1134.35L1256.21 1131.83C1255.49 1131.79 1254.8 1132.15 1254.41 1132.76L1230.39 1170.62C1229.29 1172.36 1226.59 1171.49 1226.71 1169.44L1229.23 1124.67C1229.27 1123.95 1228.91 1123.26 1228.3 1122.87L1190.44 1098.85C1188.7 1097.75 1189.57 1095.05 1191.62 1095.16L1236.39 1097.68C1237.11 1097.72 1237.8 1097.37 1238.19 1096.76L1262.21 1058.9Z" fill="#FF5900"/>
<path d="M1004.23 2983.33C1005.34 2981.59 1008.03 2982.45 1007.92 2984.51L1005.4 3029.28C1005.36 3030 1005.71 3030.69 1006.32 3031.08L1044.18 3055.1C1045.93 3056.2 1045.06 3058.9 1043 3058.79L998.234 3056.27C997.51 3056.23 996.821 3056.58 996.433 3057.19L972.414 3095.05C971.309 3096.79 968.612 3095.93 968.728 3093.87L971.247 3049.1C971.288 3048.38 970.934 3047.69 970.322 3047.3L932.46 3023.28C930.72 3022.18 931.586 3019.48 933.644 3019.6L978.411 3022.12C979.135 3022.16 979.824 3021.8 980.212 3021.19L1004.23 2983.33Z" fill="#FF5900"/>
<path d="M60.8977 4535.97C59.7933 4534.23 57.0962 4535.09 57.212 4537.15L61.1553 4607.22C61.196 4607.95 60.8419 4608.63 60.2298 4609.02L0.968371 4646.62C-0.772466 4647.72 0.0937847 4650.42 2.15212 4650.3L72.2219 4646.36C72.9456 4646.32 73.6348 4646.67 74.0231 4647.29L111.618 4706.55C112.723 4708.29 115.42 4707.42 115.304 4705.36L111.361 4635.29C111.32 4634.57 111.674 4633.88 112.286 4633.49L171.548 4595.9C173.288 4594.79 172.422 4592.1 170.364 4592.21L100.294 4596.16C99.5704 4596.2 98.8812 4595.84 98.4929 4595.23L60.8977 4535.97Z" fill="#006FFD"/>
<path d="M107.564 1901.44C108.084 1899.44 110.916 1899.44 111.436 1901.44L115.708 1917.86C115.891 1918.56 116.439 1919.11 117.14 1919.29L133.561 1923.56C135.556 1924.08 135.556 1926.92 133.561 1927.44L117.14 1931.71C116.439 1931.89 115.891 1932.44 115.708 1933.14L111.436 1949.56C110.916 1951.56 108.084 1951.56 107.564 1949.56L103.292 1933.14C103.109 1932.44 102.561 1931.89 101.86 1931.71L85.4387 1927.44C83.4435 1926.92 83.4435 1924.08 85.4387 1923.56L101.86 1919.29C102.561 1919.11 103.109 1918.56 103.292 1917.86L107.564 1901.44Z" fill="#FF5900"/>
<line y1="-1.5" x2="37.8457" y2="-1.5" transform="matrix(-0.43921 0.898384 0.898384 0.43921 1125.66 3744)" stroke="#FF5900" stroke-width="3"/>
<line x1="98.3476" y1="744.008" x2="127.681" y2="804.008" stroke="#FF5900" stroke-width="3"/>
<line x1="84.466" y1="785.932" x2="140.466" y2="764.598" stroke="#FF5900" stroke-width="3"/>
<line x1="201.348" y1="3921.01" x2="230.681" y2="3981.01" stroke="#FF5900" stroke-width="3"/>
<line x1="187.466" y1="3962.93" x2="243.466" y2="3941.6" stroke="#FF5900" stroke-width="3"/>
<line x1="1187.35" y1="1020.34" x2="1209.35" y2="1065.34" stroke="#FF5900" stroke-width="3"/>
<line x1="1176.47" y1="1051.6" x2="1218.47" y2="1035.6" stroke="#FF5900" stroke-width="3"/>
<line y1="-1.5" x2="33.958" y2="-1.5" transform="matrix(-0.934488 -0.355995 -0.355995 0.934488 1132.46 3768.18)" stroke="#FF5900" stroke-width="3"/>
<ellipse cx="117" cy="715.5" rx="7" ry="6.5" fill="#006FFD"/>
<ellipse cx="220" cy="3892.5" rx="7" ry="6.5" fill="#006FFD"/>
<circle cx="1249.55" cy="1187.02" r="5" transform="rotate(-25.5396 1249.55 1187.02)" fill="#006FFD"/>
<circle cx="102.667" cy="2569.67" r="5" transform="rotate(-25.5396 102.667 2569.67)" fill="#006FFD"/>
<circle cx="922.667" cy="4396.67" r="5" transform="rotate(-25.5396 922.667 4396.67)" fill="#FF5900"/>
<circle cx="1228.67" cy="1018.67" r="5" transform="rotate(-25.5396 1228.67 1018.67)" fill="#006FFD"/>
<circle cx="90" cy="710" r="4" fill="#006FFD"/>
<circle cx="193" cy="3887" r="4" fill="#006FFD"/>
<ellipse cx="79" cy="4486.5" rx="7" ry="6.5" fill="#FF5900"/>
<circle cx="45" cy="4473" r="4" fill="#FF5900"/>
<circle cx="107" cy="4516" r="4" fill="#FF5900"/>
<circle cx="21" cy="4581" r="4" fill="#006FFD"/>
<circle cx="1229.78" cy="1192.04" r="3" transform="rotate(-25.5396 1229.78 1192.04)" fill="#006FFD"/>
<circle cx="74.0003" cy="2542" r="3" transform="rotate(-25.5396 74.0003 2542)" fill="#006FFD"/>
<circle cx="894" cy="4369" r="3" transform="rotate(-25.5396 894 4369)" fill="#FF5900"/>
<circle cx="1204" cy="1007.68" r="3" transform="rotate(-25.5396 1204 1007.68)" fill="#006FFD"/>
<path d="M1060.76 3777.53C1064.26 3777.53 1067.2 3782.33 1068.03 3788.82C1071.02 3783 1075.43 3779.5 1078.72 3780.7C1082.01 3781.9 1083.13 3787.41 1081.69 3793.79C1086.49 3789.35 1091.83 3787.57 1094.51 3789.82C1097.19 3792.07 1096.36 3797.63 1092.82 3803.13C1098.85 3800.6 1104.48 3800.75 1106.23 3803.78C1107.98 3806.81 1105.29 3811.76 1100.09 3815.72C1106.62 3815.41 1111.86 3817.47 1112.46 3820.92C1113.07 3824.36 1108.86 3828.09 1102.61 3830.03C1108.86 3831.97 1113.07 3835.7 1112.46 3839.15C1111.85 3842.6 1106.62 3844.66 1100.09 3844.35C1105.29 3848.31 1107.98 3853.25 1106.23 3856.28C1104.48 3859.31 1098.85 3859.46 1092.82 3856.94C1096.36 3862.44 1097.19 3868 1094.51 3870.25C1091.82 3872.5 1086.49 3870.72 1081.69 3866.28C1083.13 3872.66 1082.01 3878.17 1078.72 3879.37C1075.43 3880.56 1071.02 3877.06 1068.03 3871.25C1067.2 3877.74 1064.26 3882.53 1060.76 3882.53C1057.26 3882.53 1054.32 3877.73 1053.49 3871.25C1050.5 3877.06 1046.09 3880.56 1042.8 3879.37C1039.51 3878.17 1038.39 3872.66 1039.83 3866.28C1035.03 3870.71 1029.7 3872.5 1027.01 3870.25C1024.33 3868 1025.16 3862.43 1028.7 3856.93C1022.67 3859.46 1017.04 3859.31 1015.29 3856.28C1013.54 3853.25 1016.23 3848.31 1021.43 3844.35C1014.9 3844.66 1009.67 3842.6 1009.06 3839.15C1008.45 3835.7 1012.66 3831.97 1018.91 3830.03C1012.66 3828.09 1008.45 3824.36 1009.06 3820.92C1009.67 3817.47 1014.9 3815.41 1021.43 3815.72C1016.23 3811.76 1013.54 3806.81 1015.29 3803.78C1017.05 3800.75 1022.67 3800.6 1028.7 3803.13C1025.16 3797.63 1024.33 3792.07 1027.02 3789.82C1029.7 3787.57 1035.03 3789.35 1039.83 3793.79C1038.39 3787.41 1039.52 3781.9 1042.81 3780.7C1046.09 3779.5 1050.5 3783 1053.49 3788.82C1054.32 3782.33 1057.26 3777.53 1060.76 3777.53Z" fill="#006FFD"/>
<path d="M1225.5 2394C1235.07 2394 1243.11 2407.11 1245.37 2424.84C1253.56 2408.95 1265.6 2399.38 1274.59 2402.66C1283.58 2405.93 1286.65 2421 1282.71 2438.43C1295.84 2426.3 1310.42 2421.43 1317.75 2427.58C1325.09 2433.73 1322.81 2448.94 1313.15 2463.98C1329.63 2457.07 1345.01 2457.47 1349.79 2465.76C1354.58 2474.05 1347.24 2487.56 1333.02 2498.39C1350.87 2497.53 1365.18 2503.18 1366.84 2512.6C1368.5 2522.02 1356.99 2532.22 1339.92 2537.52C1356.99 2542.83 1368.5 2553.02 1366.84 2562.44C1365.18 2571.87 1350.87 2577.51 1333.02 2576.65C1347.24 2587.48 1354.58 2601 1349.79 2609.28C1345.01 2617.57 1329.63 2617.97 1313.15 2611.07C1322.81 2626.1 1325.08 2641.31 1317.75 2647.47C1310.42 2653.62 1295.84 2648.74 1282.71 2636.61C1286.65 2654.04 1283.58 2669.12 1274.59 2672.39C1265.6 2675.66 1253.56 2666.09 1245.37 2650.2C1243.11 2667.93 1235.07 2681.04 1225.5 2681.04C1215.93 2681.04 1207.89 2667.93 1205.63 2650.2C1197.44 2666.09 1185.41 2675.66 1176.41 2672.39C1167.42 2669.11 1164.35 2654.04 1168.29 2636.61C1155.16 2648.74 1140.58 2653.62 1133.25 2647.47C1125.92 2641.31 1128.19 2626.1 1137.85 2611.07C1121.37 2617.97 1105.99 2617.57 1101.21 2609.28C1096.42 2600.99 1103.76 2587.48 1117.98 2576.65C1100.13 2577.51 1085.82 2571.87 1084.16 2562.44C1082.5 2553.02 1094.01 2542.83 1111.08 2537.52C1094.01 2532.22 1082.5 2522.02 1084.16 2512.6C1085.82 2503.18 1100.13 2497.54 1117.98 2498.39C1103.76 2487.57 1096.42 2474.05 1101.21 2465.76C1105.99 2457.47 1121.37 2457.07 1137.85 2463.98C1128.19 2448.94 1125.92 2433.73 1133.25 2427.58C1140.58 2421.43 1155.16 2426.3 1168.29 2438.43C1164.35 2421 1167.42 2405.93 1176.41 2402.66C1185.41 2399.38 1197.44 2408.95 1205.63 2424.84C1207.89 2407.11 1215.93 2394 1225.5 2394Z" fill="#006FFD"/>
<path d="M1255.57 1051.67C1256.18 1050.84 1257.5 1051.36 1257.37 1052.38L1251.89 1097.57C1251.76 1098.65 1252.22 1099.71 1253.1 1100.35L1289.88 1127.16C1290.72 1127.77 1290.2 1129.08 1289.17 1128.96L1243.99 1123.48C1242.91 1123.35 1241.85 1123.81 1241.21 1124.69L1214.4 1161.47C1213.79 1162.3 1212.47 1161.78 1212.6 1160.76L1218.08 1115.58C1218.21 1114.5 1217.75 1113.43 1216.87 1112.79L1180.09 1085.98C1179.25 1085.38 1179.77 1084.06 1180.8 1084.18L1225.98 1089.67C1227.06 1089.8 1228.12 1089.33 1228.76 1088.45L1255.57 1051.67Z" stroke="#006FFD" stroke-width="2"/>
<path d="M997.593 2976.11C998.2 2975.27 999.517 2975.79 999.393 2976.82L993.912 3022C993.781 3023.08 994.245 3024.14 995.123 3024.78L1031.9 3051.59C1032.74 3052.2 1032.22 3053.52 1031.19 3053.39L986.012 3047.91C984.933 3047.78 983.866 3048.24 983.226 3049.12L956.417 3085.9C955.81 3086.74 954.493 3086.22 954.617 3085.19L960.098 3040.01C960.229 3038.93 959.767 3037.87 958.888 3037.23L922.108 3010.42C921.275 3009.81 921.794 3008.49 922.817 3008.62L967.999 3014.1C969.079 3014.23 970.144 3013.77 970.784 3012.89L997.593 2976.11Z" stroke="#006FFD" stroke-width="2"/>
<line y1="-1.5" x2="61.221" y2="-1.5" transform="matrix(-0.43921 0.898384 0.898384 0.43921 1215.33 2705)" stroke="#FF5900" stroke-width="3"/>
<line y1="-1.5" x2="54.9321" y2="-1.5" transform="matrix(-0.934488 -0.355995 -0.355995 0.934488 1226.33 2744.11)" stroke="#FF5900" stroke-width="3"/>
<path d="M120.043 4640.95C119.937 4639.92 121.264 4639.43 121.856 4640.27L133.481 4656.85C134.105 4657.74 135.162 4658.22 136.244 4658.11L156.386 4656.04C157.411 4655.94 157.906 4657.26 157.062 4657.86L140.483 4669.48C139.593 4670.11 139.111 4671.16 139.222 4672.24L141.292 4692.39C141.398 4693.41 140.071 4693.91 139.479 4693.06L127.854 4676.48C127.23 4675.59 126.173 4675.11 125.091 4675.22L104.949 4677.29C103.924 4677.4 103.429 4676.07 104.273 4675.48L120.851 4663.85C121.741 4663.23 122.224 4662.17 122.113 4661.09L120.043 4640.95Z" stroke="#FF5900" stroke-width="2"/>
<defs>
<filter id="filter0_g_119_69" x="-102" y="0" width="343" height="343" filterUnits="userSpaceOnUse" color-interpolation-filters="sRGB">
<feFlood flood-opacity="0" result="BackgroundImageFix"/>
<feBlend mode="normal" in="SourceGraphic" in2="BackgroundImageFix" result="shape"/>
<feTurbulence type="fractalNoise" baseFrequency="1 1" numOctaves="3" seed="9793" />
<feDisplacementMap in="shape" scale="200" xChannelSelector="R" yChannelSelector="G" result="displacedImage" width="100%" height="100%" />
<feMerge result="effect1_texture_119_69">
<feMergeNode in="displacedImage"/>
</feMerge>
</filter>
<filter id="filter1_g_119_69" x="1064" y="2200" width="463" height="463" filterUnits="userSpaceOnUse" color-interpolation-filters="sRGB">
<feFlood flood-opacity="0" result="BackgroundImageFix"/>
<feBlend mode="normal" in="SourceGraphic" in2="BackgroundImageFix" result="shape"/>
<feTurbulence type="fractalNoise" baseFrequency="1 1" numOctaves="3" seed="9793" />
<feDisplacementMap in="shape" scale="200" xChannelSelector="R" yChannelSelector="G" result="displacedImage" width="100%" height="100%" />
<feMerge result="effect1_texture_119_69">
<feMergeNode in="displacedImage"/>
</feMerge>
</filter>
<filter id="filter2_g_119_69" x="-206" y="4303" width="463" height="463" filterUnits="userSpaceOnUse" color-interpolation-filters="sRGB">
<feFlood flood-opacity="0" result="BackgroundImageFix"/>
<feBlend mode="normal" in="SourceGraphic" in2="BackgroundImageFix" result="shape"/>
<feTurbulence type="fractalNoise" baseFrequency="1 1" numOctaves="3" seed="9793" />
<feDisplacementMap in="shape" scale="200" xChannelSelector="R" yChannelSelector="G" result="displacedImage" width="100%" height="100%" />
<feMerge result="effect1_texture_119_69">
<feMergeNode in="displacedImage"/>
</feMerge>
</filter>
</defs>
</svg>
