<svg width="129" height="112" viewBox="0 0 129 112" fill="none" xmlns="http://www.w3.org/2000/svg">
<path d="M76 3.08673e-05L76 112M108.534 11.8706L42.702 102.48M127.877 40.5972L21.3589 75.207M126.641 75.2071L20.1228 40.5972M105.298 102.48L39.466 11.8706M72 112L72 3.05176e-05M39.466 100.129L105.298 9.51951M20.1228 71.4028L126.641 36.7929M21.3589 36.7929L127.877 71.4028M42.7021 9.51949L108.534 100.129" stroke="#006FFD" stroke-width="4"/>
<path d="M31 50L31 112M56.8467 67.2321L3.1532 98.2321M54.8467 98.2321L1.1532 67.2321M27 112L27 50M1.1532 94.7679L54.8467 63.768M3.1532 63.768L56.8467 94.768" stroke="#FF5900" stroke-width="4"/>
</svg>
