<svg width="250" height="255" viewBox="0 0 250 255" fill="none" xmlns="http://www.w3.org/2000/svg">
<path d="M162.916 0C173.933 0.000296621 183.187 15.097 185.79 35.5117C195.218 17.218 209.079 6.19745 219.432 9.96582C229.785 13.7348 233.317 31.0862 228.78 51.1602C243.896 37.1937 260.691 31.5771 269.131 38.6592C277.571 45.7415 274.956 63.255 263.828 80.5664C282.809 72.6129 300.511 73.0802 306.02 82.6221C311.528 92.1641 303.08 107.726 286.702 120.188C307.259 119.205 323.735 125.698 325.648 136.549C327.561 147.399 314.299 159.134 294.646 165.242C314.299 171.35 327.56 183.086 325.647 193.937C323.734 204.787 307.259 211.279 286.703 210.297C303.082 222.758 311.528 238.322 306.019 247.864C300.51 257.406 282.809 257.872 263.828 249.918C274.957 267.23 277.571 284.744 269.131 291.826C260.691 298.908 243.896 293.291 228.78 279.324C233.317 299.399 229.785 316.751 219.431 320.52C209.078 324.288 195.218 313.267 185.79 294.973C183.187 315.388 173.933 330.485 162.915 330.485C151.897 330.485 142.642 315.388 140.04 294.973C130.612 313.266 116.753 324.288 106.399 320.52C96.0455 316.751 92.5121 299.399 97.0494 279.324C81.9329 293.291 65.1392 298.908 56.6988 291.825C48.2591 284.742 50.8742 267.229 62.0035 249.917C43.0218 257.871 25.3202 257.405 19.8111 247.863C14.3026 238.321 22.7489 222.758 39.1275 210.297C18.5709 211.279 2.09659 204.787 0.183196 193.937C-1.72973 183.086 11.5306 171.351 31.1832 165.243C11.5302 159.135 -1.73006 147.398 0.183196 136.548C2.09702 125.698 18.5712 119.206 39.1275 120.188C22.7491 107.726 14.3022 92.1629 19.8111 82.6211C25.3204 73.0794 43.0222 72.6135 62.0035 80.5674C50.8744 63.2554 48.2594 45.7415 56.6998 38.6592C65.1403 31.5774 81.9333 37.1941 97.0494 51.1602C92.5125 31.0859 96.0454 13.7333 106.399 9.96484C116.752 6.19683 130.612 17.2184 140.04 35.5117C142.642 15.0968 151.898 0 162.916 0Z" fill="#FF5900"/>
</svg>
